<?xml version="1.0" encoding="utf-8"?>
<!-- Generator: Adobe Illustrator 27.1.1, SVG Export Plug-In . SVG Version: 6.00 Build 0)  -->
<svg version="1.1" id="Layer_1" xmlns="http://www.w3.org/2000/svg" xmlns:xlink="http://www.w3.org/1999/xlink" x="0px" y="0px"
	 viewBox="0 0 230.6 154.6" style="enable-background:new 0 0 230.6 154.6;" xml:space="preserve">
<style type="text/css">
	.st0{fill:url(#SVGID_1_);}
	.st1{fill:url(#SVGID_00000018215974015017153790000003364769772873928870_);}
	.st2{fill:url(#SVGID_00000124879071258869255770000001126005846947214777_);}
	.st3{fill:url(#SVGID_00000164506277074131287510000000945366535588001925_);}
	.st4{fill:url(#SVGID_00000172417594241924499130000012298475001302679221_);}
	.st5{fill:#FFFFFF;}
</style>
<g>
	<g>
		
			<linearGradient id="SVGID_1_" gradientUnits="userSpaceOnUse" x1="59.3" y1="100.8" x2="178.6026" y2="100.8" gradientTransform="matrix(1 0 0 -1 0 154)">
			<stop  offset="0" style="stop-color:#F9BE00"/>
			<stop  offset="1" style="stop-color:#EA6000"/>
		</linearGradient>
		<path class="st0" d="M65.2,39.8l-5.9,2.6l0.9-5.9l7.4-3.1h6.6L68.1,73h-8L65.2,39.8z"/>
		
			<linearGradient id="SVGID_00000178176279860722591470000004135461848723098512_" gradientUnits="userSpaceOnUse" x1="59.3074" y1="100.8" x2="178.61" y2="100.8" gradientTransform="matrix(1 0 0 -1 0 154)">
			<stop  offset="0" style="stop-color:#F9BE00"/>
			<stop  offset="1" style="stop-color:#EA6000"/>
		</linearGradient>
		<path style="fill:url(#SVGID_00000178176279860722591470000004135461848723098512_);" d="M77.5,68.5l4.7-30.6l5.8-4.5h15l4.5,4.5
			l-0.9,6.1h-7.9l0.7-4.5l-1.2-1.2h-6.6L90,39.5l-2,12.9l3.2-2.5h9.9l4.5,4.5l-2.2,14.1L97.6,73H82L77.5,68.5z M94.2,68.1l1.5-1.2
			l1.7-11l-1.2-1.2H90l-2.7,2.1l-1.5,10.1l1.2,1.2H94.2z"/>
		
			<linearGradient id="SVGID_00000127014187530703951320000002649494574744053693_" gradientUnits="userSpaceOnUse" x1="59.3074" y1="100.75" x2="178.61" y2="100.75" gradientTransform="matrix(1 0 0 -1 0 154)">
			<stop  offset="0" style="stop-color:#F9BE00"/>
			<stop  offset="1" style="stop-color:#EA6000"/>
		</linearGradient>
		<path style="fill:url(#SVGID_00000127014187530703951320000002649494574744053693_);" d="M111.1,68.5l1.1-7h8l-0.8,5.3l1.2,1.2
			h6.9l1.5-1.2l1.9-12.1l-1.6-1.6h-12.4l-2-1.8l3.4-17.9h22.8l-0.8,5.5H124l-1.7,9.2h12.4l4.4,4.5l-2.4,16l-5.8,4.5h-15.4
			L111.1,68.5z"/>
		
			<linearGradient id="SVGID_00000152965917003751625950000011701693561848022955_" gradientUnits="userSpaceOnUse" x1="59.3074" y1="92.7" x2="178.61" y2="92.7" gradientTransform="matrix(1 0 0 -1 0 154)">
			<stop  offset="0" style="stop-color:#F9BE00"/>
			<stop  offset="1" style="stop-color:#EA6000"/>
		</linearGradient>
		<path style="fill:url(#SVGID_00000152965917003751625950000011701693561848022955_);" d="M147.5,49.6h4.7l-1.5,9.7h5.5l1.5-9.7
			h4.7L158.8,73h-4.7l1.6-10.6h-5.5L148.6,73h-4.7L147.5,49.6z"/>
		
			<linearGradient id="SVGID_00000173852251835365155530000014601420762109063566_" gradientUnits="userSpaceOnUse" x1="59.3074" y1="89.7" x2="178.61" y2="89.7" gradientTransform="matrix(1 0 0 -1 0 154)">
			<stop  offset="0" style="stop-color:#F9BE00"/>
			<stop  offset="1" style="stop-color:#EA6000"/>
		</linearGradient>
		<path style="fill:url(#SVGID_00000173852251835365155530000014601420762109063566_);" d="M176.7,70.3l-0.4,2.7h-13.7l0.4-2.4
			l10.5-12.3h-8.1l0.4-2.7h12.9l-0.4,2.3l-10.5,12.4C167.8,70.3,176.7,70.3,176.7,70.3z"/>
	</g>
</g>
<g>
	<g>
		<path class="st5" d="M100.4,82.6c0.6,0,1.2,0.1,1.7,0.2c0.5,0.2,1,0.4,1.3,0.7c0.4,0.3,0.6,0.8,0.8,1.3c0.2,0.5,0.2,1.1,0.1,1.8
			c-0.1,0.7-0.3,1.3-0.6,2c-0.3,0.7-0.7,1.3-1.1,1.9l-5.8,7.7h5.8l-0.4,2.4h-9l0.3-2.3l6.5-8.7c0.3-0.4,0.6-0.8,0.8-1.4
			c0.2-0.5,0.4-1.1,0.5-1.8c0.1-0.5,0-0.9-0.2-1.2c-0.2-0.3-0.6-0.4-1-0.4s-0.8,0.1-1.1,0.4c-0.3,0.3-0.5,0.6-0.6,1.2l-0.2,1.2h-3.1
			l0.2-1.1c0.1-0.7,0.3-1.3,0.6-1.8c0.3-0.5,0.7-0.9,1.1-1.2c0.5-0.3,1-0.6,1.6-0.8C99.2,82.7,99.8,82.6,100.4,82.6z"/>
		<path class="st5" d="M108.3,100.6h-3.5l0.5-3.1h3.5L108.3,100.6z"/>
		<path class="st5" d="M122.3,85.2h-6l-0.7,4.8c0.3-0.3,0.7-0.6,1.2-0.9c0.2-0.1,0.5-0.2,0.7-0.3c0.3,0,0.5-0.1,0.8-0.1
			c0.7,0,1.2,0.1,1.6,0.3c0.4,0.2,0.7,0.5,1,0.8c0.1,0.2,0.3,0.4,0.3,0.7s0.1,0.6,0.2,1c0,0.4,0,0.8,0,1.4c0,0.5-0.1,1.2-0.2,2
			c-0.1,0.6-0.2,1.1-0.3,1.6c-0.1,0.5-0.2,0.9-0.4,1.3c-0.1,0.4-0.3,0.8-0.6,1.1c-0.2,0.3-0.5,0.7-0.9,1c-0.4,0.4-1,0.6-1.6,0.8
			c-0.6,0.2-1.2,0.3-1.8,0.3c-0.6,0-1.2-0.1-1.8-0.3c-0.5-0.2-1-0.4-1.4-0.8c-0.4-0.3-0.6-0.7-0.8-1.2c-0.2-0.5-0.2-1.1-0.1-1.8
			l0.1-0.9h3.1l-0.1,0.9c-0.1,0.5,0,0.9,0.2,1.2c0.2,0.3,0.6,0.4,1,0.4c0.2,0,0.4,0,0.6-0.1s0.4-0.2,0.6-0.4
			c0.1-0.1,0.2-0.2,0.3-0.4c0.1-0.1,0.2-0.3,0.2-0.6c0.1-0.2,0.1-0.5,0.2-0.9s0.2-0.8,0.2-1.3c0.1-1,0.2-1.7,0.3-2.1
			c0-0.5,0-0.8-0.2-1c-0.2-0.4-0.6-0.6-1.1-0.6c-0.4,0-0.8,0.1-1.2,0.4c-0.3,0.3-0.5,0.6-0.6,1.1L115,93h-2.9l1.6-10.3h8.8
			L122.3,85.2z"/>
		<path class="st5" d="M131.5,90.2l3.2,10.4h-3.5l-2.2-7.3l-2,2.8l-0.7,4.6H123l2.7-17.8h3.2l-1.3,8.4l5.8-8.4h3.3L131.5,90.2z"/>
	</g>
	<g>
		<path class="st5" d="M100.4,82.6c0.6,0,1.2,0.1,1.7,0.2c0.5,0.2,1,0.4,1.3,0.7c0.4,0.3,0.6,0.8,0.8,1.3c0.2,0.5,0.2,1.1,0.1,1.8
			c-0.1,0.7-0.3,1.3-0.6,2c-0.3,0.7-0.7,1.3-1.1,1.9l-5.8,7.7h5.8l-0.4,2.4h-9l0.3-2.3l6.5-8.7c0.3-0.4,0.6-0.8,0.8-1.4
			c0.2-0.5,0.4-1.1,0.5-1.8c0.1-0.5,0-0.9-0.2-1.2c-0.2-0.3-0.6-0.4-1-0.4s-0.8,0.1-1.1,0.4c-0.3,0.3-0.5,0.6-0.6,1.2l-0.2,1.2h-3.1
			l0.2-1.1c0.1-0.7,0.3-1.3,0.6-1.8c0.3-0.5,0.7-0.9,1.1-1.2c0.5-0.3,1-0.6,1.6-0.8C99.2,82.7,99.8,82.6,100.4,82.6z"/>
		<path class="st5" d="M108.3,100.6h-3.5l0.5-3.1h3.5L108.3,100.6z"/>
		<path class="st5" d="M122.3,85.2h-6l-0.7,4.8c0.3-0.3,0.7-0.6,1.2-0.9c0.2-0.1,0.5-0.2,0.7-0.3c0.3,0,0.5-0.1,0.8-0.1
			c0.7,0,1.2,0.1,1.6,0.3c0.4,0.2,0.7,0.5,1,0.8c0.1,0.2,0.3,0.4,0.3,0.7s0.1,0.6,0.2,1c0,0.4,0,0.8,0,1.4c0,0.5-0.1,1.2-0.2,2
			c-0.1,0.6-0.2,1.1-0.3,1.6c-0.1,0.5-0.2,0.9-0.4,1.3c-0.1,0.4-0.3,0.8-0.6,1.1c-0.2,0.3-0.5,0.7-0.9,1c-0.4,0.4-1,0.6-1.6,0.8
			c-0.6,0.2-1.2,0.3-1.8,0.3c-0.6,0-1.2-0.1-1.8-0.3c-0.5-0.2-1-0.4-1.4-0.8c-0.4-0.3-0.6-0.7-0.8-1.2c-0.2-0.5-0.2-1.1-0.1-1.8
			l0.1-0.9h3.1l-0.1,0.9c-0.1,0.5,0,0.9,0.2,1.2c0.2,0.3,0.6,0.4,1,0.4c0.2,0,0.4,0,0.6-0.1s0.4-0.2,0.6-0.4
			c0.1-0.1,0.2-0.2,0.3-0.4c0.1-0.1,0.2-0.3,0.2-0.6c0.1-0.2,0.1-0.5,0.2-0.9s0.2-0.8,0.2-1.3c0.1-1,0.2-1.7,0.3-2.1
			c0-0.5,0-0.8-0.2-1c-0.2-0.4-0.6-0.6-1.1-0.6c-0.4,0-0.8,0.1-1.2,0.4c-0.3,0.3-0.5,0.6-0.6,1.1L115,93h-2.9l1.6-10.3h8.8
			L122.3,85.2z"/>
		<path class="st5" d="M131.5,90.2l3.2,10.4h-3.5l-2.2-7.3l-2,2.8l-0.7,4.6H123l2.7-17.8h3.2l-1.3,8.4l5.8-8.4h3.3L131.5,90.2z"/>
	</g>
</g>
<path class="st5" d="M42.9,14l-12,12v91.1H31l-16.4,16.8l5.3,6.2H211l5.3-6.2l-16.4-16.8l0,0V26l-12.3-12 M185.7,18.2l9.8,9.5v85.1
	H35.1v-85l9.5-9.5 M84.7,133.9l6.6-10.3h48l6.6,10.3H84.7z"/>
</svg>
