<?xml version="1.0" encoding="utf-8"?>
<!-- Generator: Adobe Illustrator 27.1.1, SVG Export Plug-In . SVG Version: 6.00 Build 0)  -->
<svg version="1.1" id="Layer_1" xmlns="http://www.w3.org/2000/svg" xmlns:xlink="http://www.w3.org/1999/xlink" x="0px" y="0px"
	 viewBox="0 0 230.6 154.6" style="enable-background:new 0 0 230.6 154.6;" xml:space="preserve">
<style type="text/css">
	.st0{fill:#FFFFFF;}
	.st1{fill:#FFA800;}
</style>
<g>
	<path class="st0" d="M93,122.5l4.8-7.6h35l4.8,7.6H93z M56.8,45l7-7h103l7.1,7v62.1H56.8V45z M177,110.2L177,110.2l0-66.6l-9-8.8
		H62.4l-8.8,8.8v66.5h0l-12,12.3l3.9,4.5h139.5l3.9-4.5L177,110.2z"/>
	<path class="st1" d="M175.9,130.3c-3.1-0.2-6.1-0.6-8.7-0.9c1.2,0.1,2.5,0.2,3.9,0.3c0.3,0,0.6,0,0.9,0c0.5,0,1,0.1,1.5,0.1
		c3.5,0.2,7.4,0.2,11,0c10.6-0.4,20.2-2.3,18-6.2c-1.5-2.8-8.2-5-16.8-6.3c10.9,1.1,19.8,3.6,21.6,6.9
		C210.3,129.9,189.7,131.3,175.9,130.3L175.9,130.3z"/>
	<path class="st1" d="M184.4,133.2c-3.4-0.2-6.6-0.6-9.5-1c2,0.2,4.1,0.4,6.2,0.6c15,0.8,37.4-1.7,34.2-9.1c-1.6-3.7-8.7-6.4-18-7.8
		c10.9,1.2,19.5,4.1,21.2,8.3C221.8,131.5,199.4,134.1,184.4,133.2z"/>
	<path class="st1" d="M186.8,135.9c-3.7-0.2-7.1-0.5-10.3-1c2.6,0.3,5.4,0.6,8.3,0.7c17.7,0.9,44.1-2.8,40.6-12.7
		c-1.8-5-10.6-8.6-21.9-10.3c12.3,1.6,22,5.2,23.9,10.6C230.9,133.1,204.4,136.8,186.8,135.9z"/>
	<path class="st1" d="M54.7,130.3c3.1-0.2,6-0.6,8.7-0.9c-1.2,0.1-2.5,0.2-3.9,0.3c-0.3,0-0.6,0-0.9,0c-0.5,0-1,0.1-1.5,0.1
		c-3.5,0.2-7.4,0.2-11,0c-10.6-0.4-20.2-2.3-18-6.2c1.5-2.8,8.2-5,16.8-6.3c-10.9,1.1-19.8,3.6-21.6,6.9
		C20.3,129.9,40.9,131.3,54.7,130.3L54.7,130.3z"/>
	<path class="st1" d="M46.2,133.2c3.4-0.2,6.6-0.6,9.5-1c-2,0.2-4.1,0.4-6.2,0.6c-15,0.8-37.4-1.7-34.2-9.1c1.6-3.7,8.7-6.4,18-7.8
		c-10.9,1.2-19.5,4.1-21.2,8.3C8.8,131.5,31.2,134.1,46.2,133.2z"/>
	<path class="st1" d="M43.9,135.9c3.7-0.2,7.1-0.5,10.3-1c-2.6,0.3-5.4,0.6-8.3,0.7c-17.7,0.9-44.1-2.8-40.6-12.7
		c1.8-5,10.5-8.6,21.9-10.3c-12.3,1.6-22,5.2-23.9,10.6C-0.3,133.1,26.2,136.8,43.9,135.9L43.9,135.9z"/>
</g>
</svg>
