<?xml version="1.0" encoding="utf-8"?>
<!-- Generator: Adobe Illustrator 27.1.1, SVG Export Plug-In . SVG Version: 6.00 Build 0)  -->
<svg version="1.1" id="Layer_1" xmlns="http://www.w3.org/2000/svg" xmlns:xlink="http://www.w3.org/1999/xlink" x="0px" y="0px"
	 viewBox="0 0 230.6 154.6" style="enable-background:new 0 0 230.6 154.6;" xml:space="preserve">
<style type="text/css">
	.st0{fill:#FFFFFF;}
	.st1{fill:url(#SVGID_1_);}
	.st2{fill:url(#SVGID_00000169542490042824709660000005817667424764470157_);}
	.st3{fill:url(#SVGID_00000085934359740261782930000002515464918674866105_);}
	.st4{fill:url(#SVGID_00000082340618405124704420000005258252711035753901_);}
	.st5{fill:url(#SVGID_00000105424491939075131060000005746886916892608417_);}
	.st6{fill:url(#SVGID_00000106124996824779070560000003565210410901206962_);}
	.st7{fill:url(#SVGID_00000011010638729125730710000010112056394776362166_);}
</style>
<g>
	<path class="st0" d="M60.3,91.8h138.1l4.3-4.2V53.3l-5-5.3l5-9.4V30l-4.3-4.2h-166L28.2,30l-0.3,8.6l5.3,9.4l-5,5.2v34.3l4.2,4.2
		h11.8l3.7-6.3h8.7L60.3,91.8z M199.5,98.8H59l-3.7-6.3h-6l-3.7,6.3H31.4l-5.6-5.5V52.4l4.5-4.7l-4.8-8.3l0.3-10.2l5.6-5.6h168
		l5.6,5.6v10.2l-4.5,8.3l4.5,4.7v40.8L199.5,98.8z"/>
	<polygon class="st0" points="37.1,37.3 35.2,34.1 37.1,30.9 40.7,30.9 42.6,34.1 40.7,37.3 	"/>
	<polygon class="st0" points="189.9,37.3 188,34.1 189.9,30.9 193.5,30.9 195.4,34.1 193.5,37.3 	"/>
	<polygon class="st0" points="37.1,87.1 35.2,84 37.1,80.8 40.7,80.8 42.6,84 40.7,87.1 	"/>
	<polygon class="st0" points="189.9,87.1 188,84 189.9,80.8 193.5,80.8 195.4,84 193.5,87.1 	"/>
	<g>
		<g>
			<path class="st0" d="M72.1,42.1h15.5l3.4,3.5l-3.6,23.7l-4.5,3.5H67.4L72.1,42.1z M80.1,68.8l1.2-1L84.5,47l-1-1h-5.9l-3.5,22.8
				H80.1z"/>
			<path class="st0" d="M96.6,42.1h15.5l3.4,3.5l-3.6,23.7l-4.5,3.5H91.9L96.6,42.1z M104.6,68.8l1.2-1l3.2-20.9l-1-1h-5.9
				l-3.5,22.8h6V68.8z"/>
			<path class="st0" d="M121.1,42.1h15.2l3.4,3.5L138.2,56l-3.5,2.7l2.6,2.7l-1.8,11.5h-6.2l1.7-10.8l-1.4-1.4h-5.2l-1.9,12.2h-6.2
				L121.1,42.1z M130.2,56.6l1.9-1.4l1.3-8.3l-1-1h-5.6l-1.6,10.6L130.2,56.6L130.2,56.6z"/>
			<path class="st0" d="M140.9,69.3l0.8-5.4h6.2l-0.6,4.1l0.9,1h5.3l1.2-1l1.4-9.4l-1.2-1.2h-9.6l-1.6-1.4l2.6-13.9H164l-0.7,4.3
				h-12.5l-1.3,7.1h9.6l3.4,3.5l-1.9,12.4l-4.5,3.5h-11.9L140.9,69.3z"/>
		</g>
		<g>
			<path class="st0" d="M72.1,42.1h15.5l3.4,3.5l-3.6,23.7l-4.5,3.5H67.4L72.1,42.1z M80.1,68.8l1.2-1L84.5,47l-1-1h-5.9l-3.5,22.8
				H80.1z"/>
			<path class="st0" d="M96.6,42.1h15.5l3.4,3.5l-3.6,23.7l-4.5,3.5H91.9L96.6,42.1z M104.6,68.8l1.2-1l3.2-20.9l-1-1h-5.9
				l-3.5,22.8h6V68.8z"/>
			<path class="st0" d="M121.1,42.1h15.2l3.4,3.5L138.2,56l-3.5,2.7l2.6,2.7l-1.8,11.5h-6.2l1.7-10.8l-1.4-1.4h-5.2l-1.9,12.2h-6.2
				L121.1,42.1z M130.2,56.6l1.9-1.4l1.3-8.3l-1-1h-5.6l-1.6,10.6L130.2,56.6L130.2,56.6z"/>
			<path class="st0" d="M140.9,69.3l0.8-5.4h6.2l-0.6,4.1l0.9,1h5.3l1.2-1l1.4-9.4l-1.2-1.2h-9.6l-1.6-1.4l2.6-13.9H164l-0.7,4.3
				h-12.5l-1.3,7.1h9.6l3.4,3.5l-1.9,12.4l-4.5,3.5h-11.9L140.9,69.3z"/>
		</g>
	</g>
</g>
<g>
	<g>
		
			<linearGradient id="SVGID_1_" gradientUnits="userSpaceOnUse" x1="38.5" y1="28.45" x2="196.6909" y2="28.45" gradientTransform="matrix(1 0 0 -1 0 154)">
			<stop  offset="0" style="stop-color:#F9BE00"/>
			<stop  offset="1" style="stop-color:#EA6000"/>
		</linearGradient>
		<path class="st1" d="M59.6,133.6h-2.4l-1.1,7.3h-6.2l1.1-7.3H38.5l0.6-3.7L52,110.2h8.9L58,129.4h2.4L59.6,133.6z M51.7,129.4
			l2.4-15.4l-9.9,15.4H51.7z"/>
		
			<linearGradient id="SVGID_00000093899838759251678280000011278950423755793052_" gradientUnits="userSpaceOnUse" x1="38.4936" y1="28.45" x2="196.6845" y2="28.45" gradientTransform="matrix(1 0 0 -1 0 154)">
			<stop  offset="0" style="stop-color:#F9BE00"/>
			<stop  offset="1" style="stop-color:#EA6000"/>
		</linearGradient>
		<path style="fill:url(#SVGID_00000093899838759251678280000011278950423755793052_);" d="M61.8,137.4l1.5-10l2.9-2.2L64,123
			l1.4-9.3l4.5-3.5H82l3.5,3.5l-1.4,9.3l-2.9,2.2l2.2,2.2l-1.5,10l-4.5,3.5H65.2L61.8,137.4z M74.6,137.2l1.2-0.9l1.3-8.3l-0.9-1
			h-5.6l-1.2,1l-1.3,8.3l0.9,0.9H74.6z M76.8,123.5l1.2-0.9l1.2-7.7l-0.9-0.9h-5.6l-1.2,0.9l-1.2,7.7l0.9,0.9H76.8z"/>
		
			<linearGradient id="SVGID_00000055683082279245266960000001682258150512076686_" gradientUnits="userSpaceOnUse" x1="38.4936" y1="28.4" x2="196.6845" y2="28.4" gradientTransform="matrix(1 0 0 -1 0 154)">
			<stop  offset="0" style="stop-color:#F9BE00"/>
			<stop  offset="1" style="stop-color:#EA6000"/>
		</linearGradient>
		<path style="fill:url(#SVGID_00000055683082279245266960000001682258150512076686_);" d="M85.7,137.4l3.6-23.7l4.5-3.5H106
			l3.5,3.5l-3.6,23.8l-4.5,3.5H89.2L85.7,137.4z M98.7,137l1.2-0.9l3.2-21l-0.9-0.9h-5.6l-1.2,0.9l-3.2,21l0.9,0.9H98.7z"/>
		
			<linearGradient id="SVGID_00000118377296182960605470000006063175471017413052_" gradientUnits="userSpaceOnUse" x1="38.4863" y1="28.4" x2="196.6772" y2="28.4" gradientTransform="matrix(1 0 0 -1 0 154)">
			<stop  offset="0" style="stop-color:#F9BE00"/>
			<stop  offset="1" style="stop-color:#EA6000"/>
		</linearGradient>
		<path style="fill:url(#SVGID_00000118377296182960605470000006063175471017413052_);" d="M109.7,137.4l3.6-23.7l4.5-3.5H130
			l3.5,3.5l-3.6,23.8l-4.5,3.5h-12.1L109.7,137.4z M122.6,137l1.2-0.9l3.2-21l-0.9-0.9h-5.6l-1.2,0.9l-3.2,21l0.9,0.9H122.6z"/>
		
			<linearGradient id="SVGID_00000104693527952472509510000018330816571933718912_" gradientUnits="userSpaceOnUse" x1="38.4936" y1="28.45" x2="196.6845" y2="28.45" gradientTransform="matrix(1 0 0 -1 0 154)">
			<stop  offset="0" style="stop-color:#F9BE00"/>
			<stop  offset="1" style="stop-color:#EA6000"/>
		</linearGradient>
		<path style="fill:url(#SVGID_00000104693527952472509510000018330816571933718912_);" d="M141.4,110.2h9.8l1.6,26.1h0.3l9.6-26.1
			h9.7l-4.7,30.7h-5.5l4.1-26.6H166l-10,26.6h-7.7l-1.9-26.6H146l-4.1,26.6h-5.3L141.4,110.2z"/>
		
			<linearGradient id="SVGID_00000123401341489437454190000003938587197763304626_" gradientUnits="userSpaceOnUse" x1="38.4936" y1="22.15" x2="196.6845" y2="22.15" gradientTransform="matrix(1 0 0 -1 0 154)">
			<stop  offset="0" style="stop-color:#F9BE00"/>
			<stop  offset="1" style="stop-color:#EA6000"/>
		</linearGradient>
		<path style="fill:url(#SVGID_00000123401341489437454190000003938587197763304626_);" d="M173.8,122.7h3.2l-1.2,7.6h3.7l1.2-7.6
			h3.2l-2.8,18.3h-3.2l1.3-8.3h-3.7l-1.3,8.3H171L173.8,122.7z"/>
		
			<linearGradient id="SVGID_00000079486985818031436620000013828380288091843727_" gradientUnits="userSpaceOnUse" x1="38.4936" y1="22.25" x2="196.6845" y2="22.25" gradientTransform="matrix(1 0 0 -1 0 154)">
			<stop  offset="0" style="stop-color:#F9BE00"/>
			<stop  offset="1" style="stop-color:#EA6000"/>
		</linearGradient>
		<path style="fill:url(#SVGID_00000079486985818031436620000013828380288091843727_);" d="M194.3,138.5l-0.4,2.4h-10.3l0.3-2.1
			l8.8-13.8h-6.2l0.4-2.4h9.7l-0.3,2l-8.8,13.9L194.3,138.5L194.3,138.5z"/>
	</g>
</g>
</svg>
