<svg xmlns="http://www.w3.org/2000/svg" xml:space="preserve" id="Artwork" x="0" y="0" version="1.1" viewBox="0 0 383.2 144">
  <g id="GeForce_RTX_00000010990122783204251360000013561230118968206240_">
    <path fill="#80bc00" d="M138.9 16.7v110.6H8.3V16.7h130.6zm224.5 0v110.6H375V16.7h-11.6z"/>
    <path d="M138.9 16.7h224.4v110.6H138.9z" class="st1"/>
    <path id="NVIDIA_Logo_00000087379303984477250770000017023099458284292521_" d="M66.1 89.8v16.6h4.7V89.8h-4.7zm-36.9-.1v16.6h4.7V93.7h3.7c1.2 0 2.1.3 2.7.9.7.8 1 2.1 1 4.4v7.3h4.6v-9.2c0-6.6-4.2-7.4-8.3-7.4h-8.4m44.5.1v16.6h7.6c4.1 0 5.4-.7 6.8-2.2 1-1.1 1.7-3.4 1.7-5.9 0-2.3-.6-4.4-1.5-5.7-1.7-2.3-4.2-2.8-8-2.8h-6.6zm4.6 3.6h2c2.9 0 4.8 1.3 4.8 4.7 0 3.4-1.9 4.7-4.8 4.7h-2v-9.4zm-18.9-3.6L55.5 103l-3.8-13.2h-5.1l5.4 16.6h6.8l5.4-16.6h-4.8zM92 106.4h4.7V89.8H92v16.6zm13.1-16.6-6.6 16.6h4.6l1-2.9h7.8l1 2.9h5l-6.6-16.6h-6.2zm3.1 3 2.8 7.8h-5.8l3-7.8zm-48.3-42v-4c.4 0 .8 0 1.2-.1 10.9-.3 18.1 9.4 18.1 9.4s-7.7 10.7-16 10.7c-1.2 0-2.3-.2-3.2-.5v-12c4.3.5 5.1 2.4 7.7 6.7l5.7-4.8s-4.1-5.4-11.1-5.4c-.9-.1-1.7 0-2.4 0m0-13.2v6c.4 0 .8-.1 1.2-.1C76.3 43 86.2 56 86.2 56S74.8 69.8 63 69.8c-1.1 0-2.1-.1-3.1-.3v3.7c.8.1 1.7.2 2.5.2 11 0 19-5.6 26.7-12.3 1.3 1 6.5 3.5 7.6 4.6-7.3 6.1-24.4 11.1-34.1 11.1-.9 0-1.8-.1-2.7-.1v5.2h41.9V37.6H59.9zm0 28.8v3.1c-10.2-1.8-13-12.4-13-12.4s4.9-5.4 13-6.3v3.5c-4.3-.5-7.6 3.5-7.6 3.5s1.9 6.7 7.6 8.6m-18.1-9.7s6-8.9 18.1-9.8v-3.2C46.6 44.7 35 56 35 56s6.6 18.9 24.9 20.7v-3.4c-13.5-1.8-18.1-16.6-18.1-16.6z" class="st1"/>
    <path fill="#fff" d="M172.3 67.7c-9.2 0-13.8-4.7-13.8-14.1V52c0-3 .5-5.6 1.6-7.7 1.1-2.1 2.6-3.8 4.6-4.9 2-1.1 4.4-1.7 7.2-1.7h.4c2.8 0 5.1.6 7.1 1.8 1.9 1.2 3.3 2.9 4.2 5.2l-5.5 1.9c-.8-2.4-2.7-3.6-5.7-3.6h-.3c-2.4 0-4.2.8-5.4 2.3-1.3 1.5-1.9 3.8-1.9 6.7v1.9c0 3 .6 5.2 1.9 6.6 1.2 1.4 3.2 2.1 5.8 2.1h.2c1.1 0 2.1-.1 3.1-.2 1-.2 1.8-.4 2.5-.7v-5.3h-6.2l.7-5h11.3v13.3c-1.4 1.1-3.1 1.9-5 2.5-1.9.6-4 .8-6.2.8h-.6zm16.9-.5v-29h19.2v5.1h-13.2V50h10.7l-.7 5.1h-10V62h13.4v5.1h-19.4zm24.7 0v-29h19.2v5.1H220v7.4h10.6l-.7 5.1H220v11.3h-6.1zm35.3.5c-2.8 0-5.2-.6-7.2-1.7-2-1.2-3.5-2.8-4.6-4.9-1.1-2.1-1.6-4.6-1.6-7.6v-1.7c0-2.9.5-5.4 1.6-7.6 1.1-2.1 2.6-3.8 4.6-4.9 2-1.2 4.4-1.7 7.2-1.7h.4c2.8 0 5.2.6 7.2 1.7 2 1.2 3.5 2.8 4.6 4.9 1.1 2.1 1.6 4.6 1.6 7.6v1.7c0 2.9-.5 5.4-1.6 7.6-1.1 2.1-2.6 3.8-4.6 4.9-2 1.2-4.4 1.7-7.2 1.7h-.4zm0-5.2h.3c2.3 0 4.1-.7 5.4-2.2 1.3-1.5 2-3.7 2-6.6v-1.9c0-2.9-.7-5.2-2-6.6-1.3-1.5-3.1-2.2-5.4-2.2h-.3c-2.3 0-4.1.7-5.4 2.2-1.3 1.5-2 3.7-2 6.6v1.9c0 3 .7 5.2 2 6.6 1.4 1.4 3.2 2.2 5.4 2.2zm18.3 4.7v-29h11c3.4 0 6 .8 8 2.4 2 1.6 3 3.8 3 6.5v.8c0 2-.5 3.6-1.4 5-1 1.4-2.3 2.4-4 3.1l6.3 11.3h-6.6L278.1 57h-4.5v10.3h-6.1zm6.1-15.6h4.8c1.5 0 2.7-.3 3.6-.8 1-.6 1.4-1.5 1.4-2.8v-1c0-1.2-.5-2.1-1.4-2.7-1-.6-2.2-.8-3.6-.8h-4.8v8.1zm33 16.1c-4.3 0-7.6-1.3-9.8-3.8-2.2-2.5-3.4-6-3.4-10.5v-1.6c0-2.9.5-5.4 1.5-7.6 1-2.1 2.5-3.8 4.5-4.9 2-1.2 4.3-1.7 7.2-1.7h.3c3 0 5.4.6 7.4 1.9 2 1.3 3.3 3.1 4.1 5.5l-5.6 2c-.4-1.4-1.1-2.5-2.1-3.1-1-.7-2.3-1-3.7-1h-.2c-2.3 0-4 .7-5.3 2.2-1.3 1.5-1.9 3.7-1.9 6.6v1.9c0 3.1.6 5.3 1.8 6.7 1.2 1.4 3 2.1 5.4 2.1h.2c1.5 0 2.8-.3 3.8-1 1.1-.6 1.8-1.7 2.3-3.1l5.5 2.2c-.8 2.3-2.2 4.1-4.2 5.3-2 1.3-4.5 1.9-7.4 1.9h-.4zm16.3-.5v-29h19.2v5.1H329V50h10.7l-.7 5.1h-10V62h13.4v5.1h-19.5zm-163.1 39.2v-29h11c3.4 0 6 .8 8 2.4 2 1.6 3 3.8 3 6.5v.8c0 2-.5 3.6-1.4 5-1 1.4-2.3 2.4-4 3.1l6.3 11.3h-6.6L170.4 96h-4.5v10.3h-6.1zm6.1-15.6h4.8c1.5 0 2.7-.3 3.6-.8 1-.6 1.4-1.5 1.4-2.8v-1c0-1.2-.5-2.1-1.4-2.7-1-.6-2.2-.8-3.6-.8h-4.8v8.1zm26.6 15.6V82.7h-8.7v-5.2h23.4v5.2h-8.7v23.7h-6zm36.8 0-6.6-10.1-6.6 10.1h-7l10-14.7-9.6-14.3h7.2l6.2 9.6 6.2-9.6h7l-9.6 14.3 10 14.7h-7.2z"/>
  </g>
</svg>
